<svg width="25" height="26" viewBox="0 0 25 26" fill="none" xmlns="http://www.w3.org/2000/svg">
<path d="M17.776 0.878662C21.7326 0.878668 24.9401 4.08616 24.9401 8.04272V18.656C24.9401 22.6126 21.7326 25.8201 17.776 25.8201H7.16273C3.20616 25.8201 -0.0013292 22.6126 -0.00133514 18.656V8.04272C-0.00133514 4.08616 3.20616 0.878662 7.16273 0.878662H17.776ZM7.16273 2.47046C4.0854 2.47046 1.59046 4.96539 1.59046 8.04272V18.656C1.59047 21.7333 4.0854 24.2283 7.16273 24.2283H17.776C20.8533 24.2283 23.3483 21.7333 23.3483 18.656V8.04272C23.3483 4.9654 20.8533 2.47046 17.776 2.47046H7.16273ZM12.4694 6.1853C12.8723 6.18532 13.2057 6.48526 13.2584 6.87378L13.2653 6.9812V12.5535H18.8375C19.2403 12.5536 19.5727 12.8527 19.6256 13.241L19.6334 13.3494C19.6334 13.7523 19.3335 14.0857 18.945 14.1384L18.8375 14.1453H13.2653V19.7175C13.2652 20.1203 12.966 20.4527 12.5778 20.5056L12.4694 20.5134C12.0664 20.5134 11.733 20.2135 11.6803 19.825L11.6735 19.7175V14.1443L6.1012 14.1453C5.6984 14.1452 5.365 13.8461 5.31214 13.4578L5.30531 13.3494C5.30531 12.9464 5.60525 12.613 5.99378 12.5603L6.1012 12.5535L11.6735 12.5525V6.9812C11.6735 6.61499 11.9207 6.30636 12.2575 6.21362L12.361 6.19214L12.4694 6.1853Z" fill="#262626"/>
</svg>
