<svg width="26" height="23" viewBox="0 0 26 23" fill="none" xmlns="http://www.w3.org/2000/svg">
<path d="M2.18179 2.93236C4.9794 0.134751 9.4407 -0.0564311 12.2384 2.74096L12.9337 3.55443L13.7101 2.74096C16.4426 0.00849634 20.6796 0.135829 23.4894 2.74096L23.6877 2.93236C26.4201 5.66497 25.751 11.1264 23.1457 13.9363L22.8029 14.2986L22.421 14.6872C20.9508 16.1637 18.6971 18.1853 15.6603 20.7517L13.9269 22.2058C13.3285 22.7039 12.4567 22.6959 11.8673 22.1872L9.72671 20.3298L7.82144 18.6531C5.55602 16.6442 3.85535 15.0717 2.71988 13.9363C-0.0777367 11.1385 -0.615844 5.73006 2.18179 2.93236ZM22.4074 3.90892C20.163 1.82765 16.9055 1.79813 14.8615 3.84154L12.8683 5.9265L11.0714 3.82592C8.94166 1.74166 5.51893 1.84522 3.30679 4.05736C1.25233 6.11193 1.54122 10.5056 3.84585 12.8103L4.25894 13.2185C5.42312 14.3549 7.086 15.879 9.24136 17.7839L10.7707 19.1277L12.9084 20.9822L14.633 19.5359L15.8712 18.4822C18.2528 16.4414 20.0596 14.803 21.2785 13.5798L21.6466 13.2038L21.9777 12.8542C24.1857 10.4731 24.5142 6.01026 22.5832 4.07885L22.4074 3.90892Z" fill="#262626"/>
</svg>
