<svg width="25" height="26" viewBox="0 0 25 26" fill="none" xmlns="http://www.w3.org/2000/svg">
<path d="M11.4373 0.847162C11.8598 0.433108 12.5354 0.433108 12.9579 0.847162L23.8221 11.4956C24.0305 11.6999 24.1482 11.9792 24.1483 12.271V25.395C24.1483 25.6615 23.9562 25.883 23.703 25.9292L23.6053 25.938H14.9139C14.614 25.938 14.3702 25.6949 14.37 25.395V19.4194L14.3651 19.0395C14.322 17.4811 13.9732 16.2585 12.3895 16.1665L12.1971 16.1606C10.4618 16.1609 10.1293 17.5174 10.0301 19.228L10.0243 19.4194V25.395C10.0241 25.6949 9.78118 25.938 9.48129 25.938H0.789886C0.523322 25.9379 0.301697 25.746 0.255707 25.4927L0.246918 25.395V12.271C0.24698 11.9792 0.36468 11.6999 0.57309 11.4956L11.4373 0.847162ZM1.8768 12.4995V24.3081H8.39536V19.3726L8.40317 19.1343C8.57076 16.2418 9.53775 14.5311 12.245 14.5317L12.4832 14.5386C14.9594 14.682 15.9222 16.3781 15.995 19.0181L15.9998 19.4194V24.3081H22.5184V12.4995L12.1971 2.38329L1.8768 12.4995Z" fill="#262626"/>
</svg>
