<svg width="24" height="26" viewBox="0 0 24 26" fill="none" xmlns="http://www.w3.org/2000/svg">
<path fill-rule="evenodd" clip-rule="evenodd" d="M13.0122 0.57339L23.6256 10.976C23.8292 11.1756 23.944 11.4488 23.944 11.7339V24.5544C23.944 24.8475 23.7064 25.0851 23.4133 25.0851H15.984C15.6909 25.0851 15.4533 24.8475 15.4533 24.5544V18.7174C15.4533 17.0217 14.1278 15.6357 12.4564 15.5388L12.2693 15.5334C10.5737 15.5334 9.18758 16.8589 9.09074 18.5303L9.08533 18.7174V24.5544C9.08531 24.8475 8.84774 25.085 8.55467 25.0851L1.12533 25.0854C0.864817 25.0854 0.64814 24.8977 0.603197 24.6502L0.594666 24.5548V11.7339C0.594666 11.4488 0.709426 11.1756 0.913086 10.976L11.5264 0.57339C11.9391 0.168896 12.5996 0.168896 13.0122 0.57339Z" fill="#262626"/>
</svg>
