<svg width="26" height="26" viewBox="0 0 26 26" fill="none" xmlns="http://www.w3.org/2000/svg">
<path d="M10.7463 0.878662C16.4613 0.878662 21.0948 5.51143 21.095 11.2263C21.095 13.7975 20.1569 16.1499 18.6047 17.9597L24.9621 24.3171C25.273 24.628 25.273 25.1313 24.9621 25.4421C24.6795 25.7247 24.2376 25.7505 23.926 25.5193L23.8371 25.4421L17.4797 19.0847C15.6699 20.6369 13.3175 21.575 10.7463 21.575C5.03144 21.5748 0.398666 16.9412 0.398666 11.2263C0.398852 5.51155 5.03155 0.878848 10.7463 0.878662ZM10.7463 2.47046C5.91079 2.47064 1.99065 6.39079 1.99046 11.2263C1.99046 16.062 5.91068 19.983 10.7463 19.9832C15.5821 19.9832 19.5022 16.0621 19.5022 11.2263C19.502 6.39067 15.582 2.47046 10.7463 2.47046Z" fill="#262626"/>
</svg>
