<svg width="27" height="27" viewBox="0 0 27 27" fill="none" xmlns="http://www.w3.org/2000/svg">
<path d="M11.3382 0.864258C17.245 0.864258 22.0345 5.63996 22.0345 11.5322C22.0344 13.7712 21.3393 15.9055 20.0775 17.6846L25.9662 23.6865C26.1745 23.8989 26.1732 24.2394 25.9632 24.4502L24.2357 26.1836C24.0237 26.3955 23.68 26.3966 23.4671 26.1855L17.5023 20.251C15.7192 21.5072 13.581 22.1992 11.3382 22.1992C5.43168 22.1992 0.64216 17.4243 0.641937 11.5322C0.641937 5.64 5.43155 0.864324 11.3382 0.864258ZM11.3431 4.7207C7.56307 4.72073 4.49841 7.78539 4.49838 11.5654C4.49838 15.3455 7.56305 18.4101 11.3431 18.4102C15.1232 18.4102 18.1878 15.3455 18.1878 11.5654C18.1878 7.78537 15.1232 4.7207 11.3431 4.7207Z" fill="#262626"/>
</svg>
